<svg width="27" height="46" viewBox="0 0 27 46" fill="none" xmlns="http://www.w3.org/2000/svg">
<path id="Union" d="M12.0005 45.9999C12.0005 40.9529 10.1115 38.1155 7.92724 36.5174C5.66391 34.8613 2.9048 34.4093 1.08688 34.5142L0.914062 31.5192C3.26281 31.3837 6.7537 31.9414 9.69871 34.0962C10.5336 34.7071 11.3116 35.437 12.0005 36.2981V0.5H15.0005V36.2981C15.6894 35.437 16.4673 34.7071 17.3022 34.0962C20.2472 31.9414 23.7381 31.3837 26.0869 31.5192L25.9141 34.5142C24.0961 34.4093 21.337 34.8613 19.0737 36.5174C16.8895 38.1155 15.0005 40.9529 15.0005 45.9999H12.0005Z" fill="black"/>
</svg>
