<svg width="26" height="72" viewBox="0 0 26 72" fill="none" xmlns="http://www.w3.org/2000/svg">
<path id="Union" d="M11.0864 71.9999C11.0864 66.9529 9.1974 64.1155 7.01317 62.5173C4.74985 60.8613 1.99074 60.4093 0.172821 60.5142L0 57.5192C2.34875 57.3837 5.83964 57.9414 8.78465 60.0962C9.61954 60.7071 10.3975 61.437 11.0864 62.2981L11 0H14L14.0864 62.2981C14.7753 61.437 15.5533 60.7071 16.3882 60.0962C19.3332 57.9414 22.8241 57.3837 25.1728 57.5192L25 60.5142C23.1821 60.4093 20.423 60.8613 18.1596 62.5173C15.9754 64.1155 14.0864 66.9529 14.0864 71.9999H11.0864Z" fill="black"/>
</svg>
